<svg xmlns="http://www.w3.org/2000/svg" xmlns:xlink="http://www.w3.org/1999/xlink" version="1.1" id="Layer_1" x="0px" y="0px" width="100px" height="100px" viewBox="0 0 100 100" enable-background="new 0 0 100 100" xml:space="preserve">
<path d="M311,49.997c0,24.305-19.695,44.006-44,44.006c-24.297,0-44-19.701-44-44.006c0-24.297,19.703-44,44-44  C291.305,5.997,311,25.7,311,49.997z"/>
<g id="SCpJpH.tif">
	
		</g>
<path d="M50,5C25.151,5,5,25.15,5,49.997C5,74.852,25.151,95,50,95c24.855,0,45-20.148,45-45.003C95,25.15,74.855,5,50,5z   M50,89.003c-21.536,0-39-17.462-39-39.006c0-21.534,17.464-39,39-39c21.544,0,39,17.466,39,39C89,71.541,71.544,89.003,50,89.003z"/>
<path d="M38.042,31c0-2.2,1.57-3.119,3.489-2.043l34.023,19.087c1.918,1.076,1.918,2.837,0,3.914L41.531,71.043  C39.612,72.119,38.042,71.2,38.042,69V31z"/>
</svg>