<svg xmlns="http://www.w3.org/2000/svg" xmlns:xlink="http://www.w3.org/1999/xlink" version="1.1" id="Layer_1" x="0px" y="0px" width="20px" height="20px" viewBox="0 0 20 20" enable-background="new 0 0 20 20" xml:space="preserve">
<rect x="-167" y="-33" display="none" fill="#000000" width="198" height="87"/>
<path d="M-110.568-20h-24.863L-153-2.432v24.863L-135.432,40h24.863L-93,22.432V-2.432L-110.568-20z M-121.373,33.19  c-7.517,0-13.65-5.863-14.113-13.263h-0.045V8.047V7.315v-8.508c0-1.078,0.885-1.953,1.978-1.953c1.094,0,1.979,0.875,1.979,1.953  v8.508h2.062V-9.854c0-1.078,0.885-1.953,1.979-1.953c1.091,0,1.978,0.875,1.978,1.953V7.315h2.06v-19.122  c0-1.078,0.887-1.953,1.978-1.953c1.093,0,1.979,0.875,1.979,1.953V7.315h2.062V-8.878c0-1.078,0.885-1.953,1.979-1.953  c1.093,0,1.978,0.875,1.978,1.953l0.041,16.193v8.543c1.994,0,1.343-0.813,1.343-6.136c0-5.322,4.857-6.232,4.857-5.581  c0,0.651,0,13.588,0,13.588c0.041,0.43,0.066,0.862,0.066,1.302C-107.214,26.852-113.554,33.19-121.373,33.19z"/>
<path d="M-55.712-11h-16.575L-84,0.712v16.575L-72.288,29h16.575L-44,17.288V0.712L-55.712-11z M-62.915,24.46  c-5.011,0-9.1-3.908-9.409-8.842h-0.03v-7.92V7.21V1.538c0-0.719,0.59-1.302,1.319-1.302s1.319,0.583,1.319,1.302V7.21h1.375V-4.236  c0-0.719,0.59-1.302,1.319-1.302c0.727,0,1.319,0.583,1.319,1.302V7.21h1.373V-5.538c0-0.719,0.592-1.302,1.319-1.302  c0.729,0,1.319,0.583,1.319,1.302V7.21h1.375V-3.585c0-0.719,0.59-1.302,1.319-1.302s1.319,0.583,1.319,1.302l0.027,10.795v5.696  c1.329,0,0.895-0.542,0.895-4.091c0-3.548,3.238-4.155,3.238-3.721s0,9.059,0,9.059c0.027,0.287,0.044,0.575,0.044,0.868  C-53.476,20.234-57.703,24.46-62.915,24.46z"/>
<path d="M-14.784-4h-12.432L-36,4.784v12.432L-27.216,26h12.432L-6,17.216V4.784L-14.784-4z M-20.187,22.595  c-3.758,0-6.825-2.931-7.056-6.631h-0.023v-5.94V9.657V5.403c0-0.539,0.442-0.977,0.989-0.977s0.989,0.438,0.989,0.977v4.254h1.031  V1.073c0-0.539,0.442-0.977,0.989-0.977c0.545,0,0.989,0.438,0.989,0.977v8.584h1.03V0.097c0-0.539,0.444-0.977,0.989-0.977  c0.547,0,0.989,0.438,0.989,0.977v9.561h1.031V1.561c0-0.539,0.442-0.977,0.989-0.977c0.546,0,0.989,0.438,0.989,0.977l0.02,8.096  v4.272c0.997,0,0.671-0.407,0.671-3.068s2.429-3.116,2.429-2.791s0,6.794,0,6.794c0.02,0.215,0.033,0.431,0.033,0.651  C-13.107,19.426-16.277,22.595-20.187,22.595z"/>
<path d="M14.144,0H5.856L0,5.856v8.288L5.856,20h8.288L20,14.144V5.856L14.144,0z M10.542,17.73c-2.506,0-4.55-1.954-4.704-4.421  H5.823v-3.96V9.105V6.269c0-0.359,0.295-0.651,0.66-0.651s0.66,0.292,0.66,0.651v2.836H7.83V3.382c0-0.359,0.295-0.651,0.659-0.651  c0.363,0,0.659,0.292,0.659,0.651v5.723h0.687V2.731c0-0.359,0.296-0.651,0.66-0.651c0.365,0,0.66,0.292,0.66,0.651v6.374h0.688  V3.708c0-0.359,0.295-0.651,0.659-0.651s0.659,0.292,0.659,0.651l0.014,5.397v2.848c0.665,0,0.447-0.271,0.447-2.045  c0-1.774,1.619-2.078,1.619-1.86c0,0.217,0,4.529,0,4.529c0.014,0.144,0.022,0.287,0.022,0.434  C15.262,15.617,13.149,17.73,10.542,17.73z"/>
</svg>